# AST/ASF file generated using VICON BodyLanguage
# -----------------------------------------------
:version 1.10
:name VICON
:units
  mass 1.0
  length 0.45
  angle deg
:documentation
   .ast/.asf automatically generated from VICON data using
   VICON BodyBuilder and BodyLanguage model FoxedUp or BRILLIANT.MOD
:root
   order TX TY TZ RX RY RZ
   axis XYZ
   position 0 0 0  
   orientation 0 0 0 
:bonedata
  begin
     id 1 
     name lhipjoint
     direction 0.645893 -0.654526 0.392961 
     length 2.38111 
     axis 0 0 0  XYZ
  end
  begin
     id 2 
     name lfemur
     direction 0.34202 -0.939693 0  
     length 6.6822  
     axis 0 0 20  XYZ
    dof rx ry rz
    limits (-160.0 20.0)
           (-70.0 70.0)
           (-60.0 70.0)
  end
  begin
     id 3 
     name ltibia
     direction 0.34202 -0.939693 0   
     length 6.93904   
     axis 0 0 20   XYZ
    dof rx
    limits (-10.0 170.0)
  end
  begin
     id 4 
     name lfoot
     direction 0.0694967 -0.190941 0.979138   
     length 2.13616   
     axis -90 7.62852e-016 20   XYZ
    dof rx rz
    limits (-45.0 90.0)
           (-70.0 20.0)
  end
  begin
     id 5 
     name ltoes
     direction 1.535e-011 -4.2202e-011 1   
     length 1.07536   
     axis -90 7.62852e-016 20   XYZ
    dof rx
    limits (-90.0 20.0)
  end
  begin
     id 6 
     name rhipjoint
     direction -0.700219 -0.612087 0.367481   
     length 2.54621  
     axis 0 0 0  XYZ 
  end
  begin
     id 7 
     name rfemur
     direction -0.34202 -0.939693 0   
     length 6.55353   
     axis 0 0 -20   XYZ
    dof rx ry rz
    limits (-160.0 20.0)
           (-70.0 70.0)
           (-70.0 60.0)
  end
  begin
     id 8 
     name rtibia
     direction -0.34202 -0.939693 0   
     length 6.8736   
     axis 0 0 -20   XYZ
    dof rx
    limits (-10.0 170.0)
 end
 begin
     id 9 
     name rfoot
     direction -0.0679995 -0.186827 0.980037   
     length 2.1218  
     axis -90 -7.62852e-016 -20   XYZ
    dof rx rz
    limits (-45.0 90.0)
           (-20.0 70.0)
  end
  begin
     id 10 
     name rtoes
     direction -1.53589e-011 -4.21772e-011 1   
     length 1.06864   
     axis -90 -7.62852e-016 -20   XYZ
    dof rx
    limits (-90.0 20.0)
  end
  begin
     id 11 
     name lowerback
     direction -0.0416607 0.996347 -0.0745409   
     length 2.12205   
     axis 0 0 0   XYZ
    dof rx ry rz
    limits (-20.0 45.0)
           (-30.0 30.0)
           (-30.0 30.0)
  end
  begin
     id 12 
     name upperback
     direction -0.000153993 0.999276 -0.0380568   
     length 2.12759   
     axis 0 0 0   XYZ
    dof rx ry rz
    limits (-20.0 45.0)
           (-30.0 30.0)
           (-30.0 30.0)
  end
  begin
     id 13 
     name thorax
     direction 0.0187671 0.999821 -0.00241421   
     length 2.13704   
     axis 0 0 0   XYZ
    dof rx ry rz
    limits (-20.0 45.0)
           (-30.0 30.0)
           (-30.0 30.0)
  end
  begin
     id 14 
     name lowerneck
     direction 0.0268157 0.964865 0.261374   
     length 1.65253   
     axis 0 0 0   XYZ
    dof rx ry rz
    limits (-20.0 45.0)
           (-30.0 30.0)
           (-30.0 30.0)
  end
  begin
     id 15 
     name upperneck
     direction 0.00263774 0.939908 -0.341418   
     length 1.72375   
     axis 0 0 0   XYZ
    dof rx ry rz
    limits (-20.0 45.0)
           (-30.0 30.0)
           (-30.0 30.0)
  end
  begin
     id 16
     name head
     direction -0.00526001 0.989001 -0.147818  
     length 1.74878  
     axis 0 0 0   XYZ
    dof rx ry rz
    limits (-20.0 45.0)
           (-30.0 30.0)
           (-30.0 30.0)
  end
  begin
     id 17 
     name lclavicle
     direction 0.881214 0.461162 -0.103884  
     length 3.25108  
     axis 0 0 0   XYZ
    dof ry rz
    limits (-20.0 10.0)
           (0.0 20.0)
  end
  begin
     id 18 
     name lhumerus
     direction 1 -4.4899e-011 3.38092e-027   
     length 4.87408   
     axis 180 -30 -90   XYZ
    dof rx ry rz
    limits (-60.0 90.0)
           (-90.0 90.0)
           (-90.0 90.0)
  end
  begin
     id 19
     name lradius
     direction 1 -4.48931e-011 9.96288e-027   
     length 2.76729   
     axis 180 -30 -90   XYZ
    dof rx
    limits (-10.0 170.0)
  end
  begin
     id 20
     name lwrist
     direction 1 -4.4896e-011 1.50617e-026   
     length 1.38364   
     axis -9.31234e-015 90 90   XYZ
    dof ry
    limits (-180.0 0.0)
 end
  begin
     id 21 
     name lhand
     direction 1 -4.49038e-011 3.01286e-026   
     length 0.98922   
     axis -1.92217e-014 90 90   XYZ
    dof rx rz
    limits (-90.0 90.0)
           (-45.0 45.0)
  end
  begin
     id 22 
     name lfingers
     direction 1 -4.49051e-011 6.02588e-026   
     length 0.797535   
     axis -3.84436e-014 90 90   XYZ
    dof rx
    limits (0.0 90.0)
  end
  begin
     id 23
     name lthumb
     direction 0.707107 -6.34901e-011 0.707107   
     length 1.14511   
     axis -90 45 2.19363e-014   XYZ
    dof rx rz
    limits (-45.0 45.0)
           (-45.0 45.0)
  end
  begin
     id 24 
     name rclavicle
     direction -0.893894 0.441652 -0.0767889   
     length 3.29361  
     axis 0 0 0   XYZ 
    dof ry rz
    limits (-10.0 20.0)
           (-20.0 0.0)
  end
  begin
     id 25 
     name rhumerus
     direction -1 -4.48945e-011 8.0491e-028  
     length 4.71404   
     axis 180 30 90   XYZ
    dof rx ry rz
    limits (-90.0 60.0)
           (-90.0 90.0)
           (-90.0 90.0)
  end
  begin
     id 26 
     name rradius
     direction -1 -4.48986e-011 9.27795e-027   
     length 2.83468   
     axis 180 30 90   XYZ
    dof rx
    limits (-10.0 170.0)
  end
  begin
     id 27 
     name rwrist
     direction -1 -4.49029e-011 1.5064e-026   
     length 1.41734   
     axis -9.31234e-015 -90 -90   XYZ
    dof ry
    limits (-180.0 0.0)
  end
  begin
     id 28
     name rhand
     direction -1 -4.48857e-011 3.01165e-026   
     length 0.868195   
     axis -1.92217e-014 -90 -90   XYZ
    dof rx rz
    limits (-90.0 90.0)
           (-45.0 45.0)
  end
  begin
     id 29
     name rfingers
     direction -1 -4.49048e-011 6.02585e-026   
     length 0.699961   
     axis -3.84436e-014 -90 -90   XYZ
    dof rx
    limits (0.0 90.0)
  end
  begin
     id 30
     name rthumb
     direction -0.707107 -6.34854e-011 0.707107   
     length 1.00501   
     axis -90 -45 -2.19363e-014   XYZ
    dof rx rz
    limits (-45.0 45.0)
           (-45.0 45.0)
  end
:hierarchy
  begin
    root lhipjoint rhipjoint lowerback
    lhipjoint lfemur
    lfemur ltibia
    ltibia lfoot
    lfoot ltoes
    rhipjoint rfemur
    rfemur rtibia
    rtibia rfoot
    rfoot rtoes
    lowerback upperback
    upperback thorax
    thorax lowerneck lclavicle rclavicle
    lowerneck upperneck
    upperneck head
    lclavicle lhumerus
    lhumerus lradius
    lradius lwrist
    lwrist lhand lthumb
    lhand lfingers
    rclavicle rhumerus
    rhumerus rradius
    rradius rwrist
    rwrist rhand rthumb
    rhand rfingers
  end

#!OML:ASF H:\ManfredObstacles\Project 1\Capture day 2\Session 1\male.ASF
:FULLY-SPECIFIED
:DEGREES
113
root -4.94786 16.2601 -8.62335 -168.516 39.8786 175.549
lowerback -4.31195 6.23105 -1.76176
upperback -0.760655 8.54429 -3.5228
thorax 1.89953 4.30452 -2.12425
lowerneck -32.7356 -5.87429 -1.55262
upperneck 42.8217 -7.76168 3.75372
head 25.8306 -1.44337 0.560219
rclavicle 5.12367e-014 1.34677e-014
rhumerus -44.8714 19.0161 -92.3558
rradius 81.37
rwrist 11.5723
rhand -11.0207 -4.36521
rfingers 7.12502
rthumb 15.0005 -33.8019
lclavicle 5.12367e-014 1.34677e-014
lhumerus -66.2351 -20.1765 88.8769
lradius 104.774
lwrist -19.2996
lhand -16.1198 6.31627
lfingers 7.12502
lthumb 10.0845 36.0546
rfemur 4.70079 1.38326 21.6279
rtibia 50.7797
rfoot 21.9577 -17.5717
rtoes -10.9579
lfemur -38.4452 -6.73671 -17.2942
ltibia 33.7304
lfoot 12.8517 9.88855
ltoes -4.57573
114
root -4.80318 16.1149 -8.95038 -168.927 40.0963 175.485
lowerback -4.08597 6.10918 -1.81968
upperback -0.644053 8.3741 -3.45252
thorax 1.87036 4.21709 -2.05128
lowerneck -32.6392 -5.82941 -1.61199
upperneck 42.7714 -7.71732 3.86385
head 25.7547 -1.43406 0.648742
rclavicle -7.01337e-015 -5.61567e-015
rhumerus -45.3044 18.17 -92.2946
rradius 80.3571
rwrist 11.5612
rhand -11.35 -4.62389
rfingers 7.12502
rthumb 14.6833 -34.084
lclavicle -7.01337e-015 -5.61567e-015
lhumerus -65.2869 -20.175 88.9219
lradius 104.281
lwrist -19.2298
lhand -16.1535 6.49144
lfingers 7.12502
lthumb 10.0521 36.2314
rfemur 3.81617 1.00001 21.2539
rtibia 53.9415
rfoot 21.0977 -17.5314
rtoes -11.1471
lfemur -37.8286 -6.39431 -18.2268
ltibia 36.0948
lfoot 10.3038 11.5465
ltoes -6.60038
115
root -4.66142 15.9693 -9.27301 -169.397 40.2993 175.424
lowerback -3.74932 5.96825 -1.85091
upperback -0.493097 8.17339 -3.37656
thorax 1.81766 4.11453 -1.99805
lowerneck -32.544 -5.7821 -1.69321
upperneck 42.6819 -7.67959 4.0057
head 25.6446 -1.43111 0.754777
rclavicle -7.34696e-014 2.1419e-014
rhumerus -45.7239 17.266 -92.2236
rradius 79.2736
rwrist 11.7145
rhand -11.685 -4.85905
rfingers 7.12502
rthumb 14.3605 -34.3423
lclavicle -7.34696e-014 2.1419e-014
lhumerus -64.1992 -20.1157 88.9792
lradius 103.641
lwrist -19.1236
lhand -16.2257 6.70492
lfingers 7.12502
lthumb 9.98245 36.4482
rfemur 2.89273 0.678295 20.9164
rtibia 57.1432
rfoot 20.0934 -17.4447
rtoes -11.3339
lfemur -37.1828 -6.28133 -19.0403
ltibia 38.6105
lfoot 7.8444 13.6281
ltoes -9.06554
116
root -4.52094 15.8261 -9.59004 -169.94 40.503 175.341
lowerback -3.29554 5.8126 -1.90657
upperback -0.310991 7.95049 -3.29745
thorax 1.72798 4.001 -1.93924
lowerneck -32.5017 -5.73294 -1.77923
upperneck 42.5473 -7.65537 4.15446
head 25.5118 -1.43782 0.855981
rclavicle -2.9445e-014 3.1408e-014
rhumerus -46.1305 16.2699 -92.1171
rradius 78.1
rwrist 12.1407
rhand -11.9607 -5.0927
rfingers 7.12502
rthumb 14.0949 -34.5947
lclavicle -2.9445e-014 3.1408e-014
lhumerus -62.9497 -20.0024 89.0619
lradius 102.819
lwrist -18.9475
lhand -16.36 6.94393
lfingers 7.12502
lthumb 9.85284 36.6934
rfemur 1.89789 0.426495 20.6051
rtibia 60.3976
rfoot 18.9783 -17.2505
rtoes -11.6727
lfemur -36.4294 -6.33941 -19.7805
ltibia 41.0917
lfoot 5.58168 15.9126
ltoes -9.64946
117
root -4.37975 15.6878 -9.90001 -170.63 40.7286 175.133
lowerback -2.73586 5.64018 -2.09148
upperback -0.08218 7.70907 -3.23794
thorax 1.61348 3.87832 -1.83779
lowerneck -32.5188 -5.65358 -1.824
upperneck 42.3461 -7.6207 4.28962
head 25.3274 -1.44277 0.936814
rclavicle -9.446e-014 2.03257e-014
rhumerus -46.5078 15.2181 -92.0004
rradius 76.8026
rwrist 12.6177
rhand -12.2513 -5.4057
rfingers 7.12502
rthumb 13.8149 -34.927
lclavicle -9.446e-014 2.03257e-014
lhumerus -61.5045 -19.8508 89.153
lradius 101.802
lwrist -18.7058
lhand -16.5485 7.2406
lfingers 7.12502
lthumb 9.67096 36.9986
rfemur 0.815757 0.238652 20.2277
rtibia 63.7207
rfoot 17.7067 -17.0054
rtoes -12.0343
lfemur -35.4746 -6.4932 -20.5627
ltibia 43.3388
lfoot 3.68366 18.0967
ltoes -10.1238
118
root -4.23497 15.559 -10.2018 -171.519 40.9985 174.667
lowerback -2.10567 5.45868 -2.55115
upperback 0.176138 7.46438 -3.21944
thorax 1.46244 3.75403 -1.63237
lowerneck -32.6274 -5.56234 -1.84921
upperneck 42.1023 -7.58965 4.41327
head 25.1364 -1.45118 1.00004
rclavicle -3.87009e-015 -6.90777e-015
rhumerus -46.8756 14.1101 -91.8456
rradius 75.3583
rwrist 13.0808
rhand -12.55 -5.80716
rfingers 7.12502
rthumb 13.5269 -35.3478
lclavicle -3.87009e-015 -6.90777e-015
lhumerus -59.892 -19.7008 89.264
lradius 100.614
lwrist -18.4221
lhand -16.7679 7.61577
lfingers 7.12502
lthumb 9.45929 37.3835
rfemur -0.412935 0.105134 19.6729
rtibia 67.1163
rfoot 16.3136 -16.7083
rtoes -12.3417
lfemur -34.2913 -6.61092 -21.5405
ltibia 45.2061
lfoot 2.00235 20.1379
ltoes -10.3831
119
root -4.08551 15.4432 -10.4937 -172.637 41.2893 173.809
lowerback -1.4621 5.26066 -3.40632
upperback 0.445217 7.20869 -3.26963
thorax 1.27976 3.62457 -1.28032
lowerneck -32.8226 -5.44521 -1.81301
upperneck 41.8394 -7.54782 4.50223
head 24.9525 -1.4512 1.03107
rclavicle 5.17586e-014 -1.98785e-015
rhumerus -47.2536 12.9777 -91.6416
rradius 73.7852
rwrist 13.4683
rhand -12.8506 -6.36519
rfingers 7.12502
rthumb 13.2372 -35.9249
lclavicle 5.17586e-014 -1.98785e-015
lhumerus -58.1535 -19.5837 89.3783
lradius 99.3228
lwrist -18.1827
lhand -16.9886 8.1135
lfingers 7.12502
lthumb 9.24637 37.8908
rfemur -1.86116 -0.0211221 18.8312
rtibia 70.5748
rfoot 14.817 -16.3817
rtoes -12.7736
lfemur -32.9241 -6.60423 -22.8404
ltibia 46.6069
lfoot 0.66304 21.8953
ltoes -10.7682
120
root -3.9326 15.3423 -10.7764 -173.891 41.5805 172.605
lowerback -0.879335 5.05269 -4.59278
upperback 0.705268 6.94771 -3.39514
thorax 1.10048 3.4935 -0.816153
lowerneck -33.0633 -5.32675 -1.75627
upperneck 41.5934 -7.52441 4.61232
head 24.81 -1.44742 1.06622
rclavicle -1.11195e-014 -1.93815e-015
rhumerus -47.6598 11.8512 -91.4022
rradius 72.125
rwrist 13.6558
rhand -13.193 -7.05534
rfingers 7.12502
rthumb 12.9072 -36.6362
lclavicle -1.11195e-014 -1.93815e-015
lhumerus -56.3346 -19.538 89.4693
lradius 98.0198
lwrist -18.0364
lhand -17.2033 8.7394
lfingers 7.12502
lthumb 9.03921 38.5257
rfemur -3.59269 -0.159553 17.7372
rtibia 74.0494
rfoot 13.2851 -16.0431
rtoes -13.2917
lfemur -31.4507 -6.43427 -24.4043
ltibia 47.5626
lfoot -0.372319 23.3489
ltoes -11.3366
121
root -3.77868 15.2571 -11.0513 -175.027 41.8294 171.316
lowerback -0.438535 4.82239 -5.87074
upperback 0.913134 6.65968 -3.55473
thorax 0.952649 3.35016 -0.322621
lowerneck -33.3239 -5.2022 -1.68748
upperneck 41.3528 -7.50994 4.75033
head 24.6866 -1.43849 1.11337
rclavicle 6.13748e-014 3.26504e-014
rhumerus -48.1536 10.7772 -91.1478
rradius 70.4742
rwrist 13.6201
rhand -13.5575 -7.81296
rfingers 7.12502
rthumb 12.5557 -37.4157
lclavicle 6.13748e-014 3.26504e-014
lhumerus -54.5289 -19.5423 89.5114
lradius 96.8192
lwrist -18.1074
lhand -17.3627 9.43798
lfingers 7.12502
lthumb 8.88532 39.2309
rfemur -5.68044 -0.31034 16.6271
rtibia 77.4657
rfoot 11.7657 -15.7638
rtoes -13.9388
lfemur -30.0305 -6.1256 -25.9923
ltibia 48.164
lfoot -1.09051 24.4846
ltoes -12.0773
122
root -3.62523 15.1895 -11.3226 -175.797 42.0137 170.235
lowerback -0.214462 4.55866 -6.9662
upperback 1.05375 6.33192 -3.70551
thorax 0.889156 3.18687 0.10168
lowerneck -33.6007 -5.07685 -1.59786
upperneck 41.159 -7.50932 4.91013
head 24.6198 -1.42146 1.16915
rclavicle 1.81267e-014 7.85199e-015
rhumerus -48.7657 9.79721 -90.9034
rradius 68.9454
rwrist 13.3397
rhand -13.9732 -8.54869
rfingers 7.12502
rthumb 12.155 -38.1756
lclavicle 1.81267e-014 7.85199e-015
lhumerus -52.7904 -19.5766 89.4853
lradius 95.8243
lwrist -18.3544
lhand -17.466 10.0667
lfingers 7.12502
lthumb 8.78567 39.8639
rfemur -8.14137 -0.473758 15.7591
rtibia 80.7182
rfoot 10.3609 -15.576
rtoes -14.6561
lfemur -28.7882 -5.7545 -27.3491
ltibia 48.5344
lfoot -1.58207 25.324
ltoes -12.9218
123
root -3.47381 15.1391 -11.5925 -176.064 42.1172 169.585
lowerback -0.186453 4.24535 -7.66714
upperback 1.11679 5.93957 -3.80975
thorax 0.903532 2.99046 0.377034
lowerneck -33.8516 -4.94052 -1.50215
upperneck 40.9983 -7.50074 5.10191
head 24.5796 -1.39178 1.24846
rclavicle 3.17559e-014 -1.75924e-014
rhumerus -49.537 8.93732 -90.6938
rradius 67.646
rwrist 12.8889
rhand -14.3631 -9.13796
rfingers 7.12502
rthumb 11.7789 -38.7867
lclavicle 3.17559e-014 -1.75924e-014
lhumerus -51.186 -19.6041 89.3839
lradius 95.1178
lwrist -18.706
lhand -17.5244 10.5051
lfingers 7.12502
lthumb 8.72929 40.3046
rfemur -10.9112 -0.632224 15.3355
rtibia 83.7137
rfoot 9.06716 -15.5766
rtoes -15.2081
lfemur -27.7404 -5.40406 -28.2989
ltibia 48.7631
lfoot -1.90191 25.9039
ltoes -13.8542
124
root -3.32317 15.107 -11.865 -175.867 42.1622 169.413
lowerback -0.314448 3.89612 -7.91372
upperback 1.12573 5.49865 -3.85418
thorax 0.994556 2.76809 0.479386
lowerneck -34.0946 -4.80767 -1.415
upperneck 40.8857 -7.48991 5.30615
head 24.5859 -1.35608 1.34179
rclavicle 6.70898e-016 3.13086e-014
rhumerus -50.4885 8.18504 -90.5081
rradius 66.6735
rwrist 12.333
rhand -14.6756 -9.46009
rfingers 7.12502
rthumb 11.4776 -39.1259
lclavicle 6.70898e-016 3.13086e-014
lhumerus -49.7429 -19.619 89.2335
lradius 94.7508
lwrist -19.0115
lhand -17.5492 10.633
lfingers 7.12502
lthumb 8.70542 40.4335
rfemur -13.8684 -0.741749 15.3942
rtibia 86.3676
rfoot 7.89443 -15.7858
rtoes -15.7137
lfemur -26.8039 -5.13123 -28.8164
ltibia 48.8732
lfoot -2.1926 26.2615
ltoes -14.7719
125
root -3.17188 15.0939 -12.1395 -175.372 42.1213 169.565
lowerback -0.502008 3.50305 -7.84263
upperback 1.08464 4.99061 -3.84426
thorax 1.09469 2.51234 0.46576
lowerneck -34.3027 -4.65577 -1.31222
upperneck 40.817 -7.43215 5.47436
head 24.6114 -1.3036 1.42973
rclavicle 1.75924e-014 -5.46658e-014
rhumerus -51.6482 7.56112 -90.3431
rradius 66.0897
rwrist 11.7174
rhand -14.868 -9.51271
rfingers 7.12502
rthumb 11.2921 -39.1887
lclavicle 1.75924e-014 -5.46658e-014
lhumerus -48.4917 -19.6138 89.0737
lradius 94.7211
lwrist -19.2223
lhand -17.582 10.4651
lfingers 7.12502
lthumb 8.67377 40.2669
rfemur -16.9013 -0.835105 15.793
rtibia 88.6425
rfoot 6.79786 -16.2096
rtoes -16.0027
lfemur -25.8813 -5.00434 -29.029
ltibia 48.8274
lfoot -2.44156 26.4103
ltoes -15.6725
126
root -3.01803 15.0983 -12.4155 -174.797 42.0176 169.809
lowerback -0.699514 3.07641 -7.65536
upperback 1.01945 4.43165 -3.80731
thorax 1.1837 2.23179 0.412439
lowerneck -34.4646 -4.48194 -1.20559
upperneck 40.774 -7.30674 5.58374
head 24.6292 -1.23539 1.50564
rclavicle -4.56708e-014 5.76476e-015
rhumerus -52.9805 7.05522 -90.1778
rradius 65.8909
rwrist 11.1088
rhand -14.9071 -9.32612
rfingers 7.12502
rthumb 11.2543 -39.0042
lclavicle -4.56708e-014 5.76476e-015
lhumerus -47.4089 -19.5995 88.9349
lradius 94.9962
lwrist -19.3154
lhand -17.611 10.0817
lfingers 7.12502
lthumb 8.64572 39.8847
rfemur -19.9302 -0.911431 16.3078
rtibia 90.5387
rfoot 5.71593 -16.8049
rtoes -16.0392
lfemur -24.8708 -4.99637 -29.1384
ltibia 48.5613
lfoot -2.6035 26.3478
ltoes -16.5461
127
root -2.861 15.1193 -12.6898 -174.305 41.8257 169.968
lowerback -0.824851 2.60385 -7.53447
upperback 0.934751 3.8018 -3.74478
thorax 1.20792 1.91735 0.41203
lowerneck -34.5961 -4.28364 -1.09541
upperneck 40.7835 -7.09081 5.59724
head 24.6646 -1.1479 1.55664
rclavicle 1.15295e-014 -3.37934e-015
rhumerus -54.469 6.70217 -89.9928
rradius 66.0541
rwrist 10.5231
rhand -14.771 -9.00848
rfingers 7.12502
rthumb 11.3856 -38.6794
lclavicle 1.15295e-014 -3.37934e-015
lhumerus -46.4874 -19.5837 88.8423
lradius 95.5291
lwrist -19.341
lhand -17.6352 9.65388
lfingers 7.12502
lthumb 8.62239 39.4578
rfemur -22.8948 -1.01653 16.781
rtibia 92.0682
rfoot 4.59675 -17.5263
rtoes -16.0679
lfemur -23.7166 -5.09848 -29.284
ltibia 48.0315
lfoot -2.62246 26.0254
ltoes -17.3587
